<?xml version="1.0" encoding="iso-8859-1"?>
<!-- Generator: Adobe Illustrator 16.0.0, SVG Export Plug-In . SVG Version: 6.00 Build 0)  -->
<!DOCTYPE svg PUBLIC "-//W3C//DTD SVG 1.1//EN" "http://www.w3.org/Graphics/SVG/1.1/DTD/svg11.dtd">
<svg version="1.1" id="Capa_1" xmlns="http://www.w3.org/2000/svg" xmlns:xlink="http://www.w3.org/1999/xlink" x="0px" y="0px"
	 width="47px" height="47px" viewBox="0 0 47 47" style="enable-background:new 0 0 47 47;" xml:space="preserve">
<g>
	<g>
		<path d="M43.438,4.493H3.563C1.6,4.493,0,6.093,0,8.057v30.885c0,1.965,1.6,3.564,3.563,3.564h39.875
			c1.963,0,3.562-1.6,3.562-3.564V8.057C47,6.093,45.398,4.493,43.438,4.493z M36.6,7.032c0.922,0,1.666,0.748,1.666,1.671
			c0,0.92-0.746,1.668-1.666,1.668c-0.924,0-1.668-0.748-1.668-1.668C34.926,7.78,35.674,7.032,36.6,7.032z M31.828,7.032
			c0.92,0,1.669,0.748,1.669,1.671c0,0.92-0.749,1.668-1.669,1.668c-0.924,0-1.674-0.748-1.674-1.668
			C30.154,7.78,30.9,7.032,31.828,7.032z M40.96,34.094c0,1.306-1.069,2.376-2.376,2.376H8.416c-1.308,0-2.376-1.07-2.376-2.376
			V12.908c0-1.307,1.068-2.377,2.376-2.377h17.201c1.305,0,2.374,0.802,2.374,1.782c0,0.983,1.071,1.782,2.375,1.782h8.218
			c1.307,0,2.376,1.071,2.376,2.377V34.094L40.96,34.094z M41.371,10.372c-0.928,0-1.672-0.748-1.672-1.668
			c0-0.923,0.744-1.671,1.672-1.671c0.922,0,1.664,0.748,1.664,1.671C43.035,9.624,42.293,10.372,41.371,10.372z"/>
		<path d="M32.501,17.367c-2.282,0-4.129,2.094-4.536,4.946c-0.031-0.003-0.057-0.018-0.088-0.018H11.084
			c-0.668,0-1.208,0.54-1.208,1.206c0,0.668,0.54,1.206,1.208,1.206h1.304v3.218c0,0.667,0.54,1.208,1.206,1.208
			c0.666,0,1.209-0.541,1.209-1.208v-3.218h0.702v1.91c0,0.667,0.54,1.207,1.209,1.207c0.666,0,1.205-0.54,1.205-1.207v-1.91h9.958
			c0.031,0,0.057-0.015,0.088-0.017c0.407,2.849,2.254,4.942,4.536,4.942c2.59,0,4.623-2.694,4.623-6.133
			C37.124,20.062,35.091,17.367,32.501,17.367z M32.501,27.22c-1.046,0-2.212-1.527-2.212-3.719c0-2.192,1.166-3.72,2.212-3.72
			c1.045,0,2.211,1.528,2.211,3.72C34.712,25.692,33.546,27.22,32.501,27.22z"/>
	</g>
</g>
<g>
</g>
<g>
</g>
<g>
</g>
<g>
</g>
<g>
</g>
<g>
</g>
<g>
</g>
<g>
</g>
<g>
</g>
<g>
</g>
<g>
</g>
<g>
</g>
<g>
</g>
<g>
</g>
<g>
</g>
</svg>
